<svg version="1.1" id="Layer_1" xmlns="http://www.w3.org/2000/svg" xmlns:xlink="http://www.w3.org/1999/xlink" x="0px" y="0px"
	 width="100%" viewBox="0 0 512 512" enable-background="new 0 0 512 512" xml:space="preserve">
<path fill="#FF0000" opacity="1.000000" stroke="none" 
	d="
M513.000000,484.000000 
	C513.000000,493.659241 513.000000,503.318481 513.000000,512.957947 
	C342.333313,512.957947 171.666656,512.957947 1.000000,512.957947 
	C1.000000,503.589691 1.000000,494.263519 1.353847,484.416260 
	C7.825459,492.579865 15.255407,498.243927 26.832182,497.136017 
	C35.537956,496.302856 45.294739,489.832031 46.788963,481.257019 
	C47.996391,474.327881 47.661781,467.130005 48.475372,460.029236 
	C53.619743,460.007660 58.299969,460.008179 62.996452,460.385803 
	C64.566948,466.203979 67.139847,467.977875 73.706917,467.978271 
	C196.171417,467.985596 318.635925,467.984955 441.100433,467.979645 
	C447.444000,467.979370 449.843994,466.208679 452.476318,460.029480 
	C457.288269,460.021362 461.637634,460.035553 465.994202,460.514709 
	C466.003296,465.132538 465.983124,469.285614 466.011383,473.438324 
	C466.081757,483.783630 472.669830,493.600250 482.041809,496.018555 
	C493.109070,498.874329 503.145813,497.011566 509.589935,487.047577 
	C510.388428,485.812988 511.847229,485.005463 513.000000,484.000000 
z"/>
<path fill="#000000" opacity="1.000000" stroke="none" 
	d="
M1.000001,91.000000 
	C1.000000,61.018967 1.000000,31.037930 1.000000,1.058227 
	C171.666672,1.059560 342.333344,1.059560 513.000000,1.059560 
	C513.000000,30.766973 513.000000,60.414829 512.646667,90.577530 
	C511.179077,89.692993 510.074402,88.285881 508.949005,86.895508 
	C502.421265,78.830658 494.115784,75.388969 483.946960,78.095093 
	C475.366425,80.378540 469.021484,85.794708 467.221039,94.647293 
	C465.948242,100.905464 466.340210,107.502205 465.548645,113.969131 
	C462.754395,113.940742 460.400513,113.891029 458.070404,113.458466 
	C458.727814,109.527664 459.882996,105.983681 459.910065,102.431107 
	C460.078766,80.276443 460.012299,58.119846 459.987915,35.963928 
	C459.975555,24.757036 452.635742,17.100626 441.362579,17.049255 
	C412.710358,16.918694 384.056305,16.878225 355.404755,17.067457 
	C343.454224,17.146385 335.614105,25.084944 335.877136,37.151138 
	C336.334442,58.131008 336.004272,79.128052 336.004272,100.117889 
	C336.004272,101.893486 336.004272,103.669075 336.004272,105.542900 
	C329.322021,105.542900 323.301178,105.542900 316.995728,105.542900 
	C316.995728,103.259636 316.995758,101.437782 316.995758,99.615929 
	C316.995728,77.459984 317.003174,55.304039 316.992096,33.148098 
	C316.987488,23.895353 310.246338,17.018270 301.114685,17.012133 
	C270.629425,16.991642 240.142853,16.873857 209.660797,17.185633 
	C206.221512,17.220810 202.380951,19.160580 199.476547,21.256548 
	C194.408203,24.914141 193.036011,30.695608 193.022690,36.705063 
	C192.975830,57.861382 193.004410,79.017876 193.004379,100.174301 
	C193.004379,101.944435 193.004379,103.714561 193.004379,105.699768 
	C186.741852,105.699768 181.174255,105.699768 174.996292,105.699768 
	C174.996292,103.621185 174.996292,101.840202 174.996292,100.059227 
	C174.996201,78.736214 174.833115,57.411438 175.063278,36.090908 
	C175.182297,25.063864 167.524689,17.140724 156.544647,17.069134 
	C127.893074,16.882330 99.238281,16.855471 70.587257,17.080452 
	C59.255260,17.169436 50.609806,25.543253 50.863689,37.267536 
	C51.346836,59.579605 50.926361,81.910133 51.090614,104.231453 
	C51.114216,107.439247 52.302803,110.638458 52.544888,113.911743 
	C50.762505,113.969887 49.387489,113.957939 48.006638,113.481033 
	C47.999161,110.187035 48.208065,107.338539 47.948650,104.533340 
	C47.512188,99.813538 47.625313,94.801491 45.995243,90.483124 
	C42.467770,81.138161 34.069931,77.732735 25.011768,77.234856 
	C17.154451,76.802986 10.222806,80.172729 5.136957,86.616730 
	C3.897125,88.187645 2.386251,89.544640 1.000001,91.000000 
z"/>
<path fill="#2D3E67" opacity="1.000000" stroke="none" 
	d="
M465.989014,113.947807 
	C466.340210,107.502205 465.948242,100.905464 467.221039,94.647293 
	C469.021484,85.794708 475.366425,80.378540 483.946960,78.095093 
	C494.115784,75.388969 502.421265,78.830658 508.949005,86.895508 
	C510.074402,88.285881 511.179077,89.692993 512.646667,91.046188 
	C513.000000,221.687561 513.000000,352.375122 513.000000,483.531342 
	C511.847229,485.005463 510.388428,485.812988 509.589935,487.047577 
	C503.145813,497.011566 493.109070,498.874329 482.041809,496.018555 
	C472.669830,493.600250 466.081757,483.783630 466.011383,473.438324 
	C465.983124,469.285614 466.003296,465.132538 466.169739,460.134247 
	C466.210297,448.830597 466.082581,438.372375 465.973297,427.451324 
	C465.990204,384.676453 465.988739,342.364349 466.164490,299.672302 
	C466.214386,288.832062 466.087067,278.371826 465.976440,267.448730 
	C465.980255,226.686630 465.967407,186.387390 466.215393,145.757706 
	C466.313873,134.934113 466.151428,124.440956 465.989014,113.947807 
M496.995026,325.500000 
	C496.995026,252.040207 496.995148,178.580414 496.993866,105.120613 
	C496.993835,103.621574 497.065002,102.115845 496.951385,100.624779 
	C496.638855,96.524521 494.374420,94.124947 490.279877,93.986488 
	C486.239746,93.849876 483.704468,96.111320 482.907379,100.016266 
	C482.546692,101.783142 482.707611,103.665627 482.707520,105.495667 
	C482.700439,226.762619 482.700806,348.029572 482.705231,469.296509 
	C482.705292,470.961121 482.624420,472.643005 482.825714,474.286896 
	C483.321533,478.335480 485.889679,480.769257 489.760925,480.835175 
	C493.698242,480.902161 496.166626,478.300995 496.874054,474.408478 
	C497.167786,472.792297 496.991638,471.086700 496.991791,469.421753 
	C496.995758,421.781158 496.994995,374.140594 496.995026,325.500000 
z"/>
<path fill="#2C3D66" opacity="1.000000" stroke="none" 
	d="
M1.000001,91.468658 
	C2.386251,89.544640 3.897125,88.187645 5.136957,86.616730 
	C10.222806,80.172729 17.154451,76.802986 25.011768,77.234856 
	C34.069931,77.732735 42.467770,81.138161 45.995243,90.483124 
	C47.625313,94.801491 47.512188,99.813538 47.948650,104.533340 
	C48.208065,107.338539 47.999161,110.187035 47.828247,113.860649 
	C47.785648,125.166718 47.915611,135.628204 48.028252,146.552277 
	C48.019974,187.313202 48.029011,227.611557 47.778008,268.241333 
	C47.682220,279.066467 47.846470,289.560150 48.005493,300.519104 
	C48.015194,343.293762 48.030113,385.603149 47.784775,428.243408 
	C47.686745,439.066589 47.848984,449.558990 48.011223,460.051361 
	C47.661781,467.130005 47.996391,474.327881 46.788963,481.257019 
	C45.294739,489.832031 35.537956,496.302856 26.832182,497.136017 
	C15.255407,498.243927 7.825459,492.579865 1.353847,483.947632 
	C1.000000,353.312439 1.000000,222.624878 1.000001,91.468658 
M32.116974,335.500000 
	C32.116959,258.840027 32.117054,182.180054 32.116268,105.520073 
	C32.116253,103.853592 32.085724,102.186874 32.105209,100.520683 
	C32.153572,96.385635 29.723969,94.496254 25.995411,94.004311 
	C20.160898,93.234497 17.005932,96.828743 17.005674,104.143150 
	C17.001369,226.299194 17.002493,348.455261 17.004192,470.611298 
	C17.004208,471.777588 16.914978,472.958344 17.061325,474.107605 
	C17.597500,478.318146 19.950186,480.789459 24.266417,480.938232 
	C28.253586,481.075653 31.626455,477.995911 32.048542,473.984741 
	C32.204777,472.500031 32.114883,470.988007 32.114964,469.488434 
	C32.117371,425.158966 32.116974,380.829468 32.116974,335.500000 
z"/>
<path fill="#2F4068" opacity="1.000000" stroke="none" 
	d="
M452.013702,460.051758 
	C449.843994,466.208679 447.444000,467.979370 441.100433,467.979645 
	C318.635925,467.984955 196.171417,467.985596 73.706917,467.978271 
	C67.139847,467.977875 64.566948,466.203979 63.095985,460.028809 
	C65.101059,452.366577 66.686249,451.310272 75.294754,451.310089 
	C196.603912,451.307617 317.913055,451.307739 439.222229,451.310089 
	C447.855316,451.310272 449.211365,452.247528 452.013702,460.051758 
z"/>
<path fill="#E2E9F6" opacity="1.000000" stroke="none" 
	d="
M452.476318,460.029480 
	C449.211365,452.247528 447.855316,451.310272 439.222229,451.310089 
	C317.913055,451.307739 196.603912,451.307617 75.294754,451.310089 
	C66.686249,451.310272 65.101059,452.366577 63.079735,459.651672 
	C58.299969,460.008179 53.619743,460.007660 48.475368,460.029236 
	C47.848984,449.558990 47.686745,439.066589 48.175117,428.282013 
	C49.867905,427.940948 50.910088,427.892090 52.282745,427.947449 
	C58.214760,436.134674 66.057533,438.374329 75.590538,437.976532 
	C105.998871,436.707733 136.430481,439.118591 166.899384,436.469757 
	C182.824005,435.085358 199.071457,437.979156 215.154236,437.728851 
	C246.583145,437.239685 278.001587,439.079407 309.471680,436.475464 
	C326.403046,435.074554 343.630127,437.606659 360.730164,437.800781 
	C386.059174,438.088348 411.397156,437.641327 436.724365,437.999573 
	C445.828308,438.128326 453.017883,435.637726 458.493866,427.936951 
	C461.271576,427.963135 463.613220,427.938629 465.954895,427.914124 
	C466.082581,438.372375 466.210297,448.830597 466.162476,459.669312 
	C461.637634,460.035553 457.288269,460.021362 452.476318,460.029480 
z"/>
<path fill="#2C3D66" opacity="1.000000" stroke="none" 
	d="
M52.952251,113.841644 
	C52.302803,110.638458 51.114216,107.439247 51.090614,104.231453 
	C50.926361,81.910133 51.346836,59.579605 50.863689,37.267536 
	C50.609806,25.543253 59.255260,17.169436 70.587257,17.080452 
	C99.238281,16.855471 127.893074,16.882330 156.544647,17.069134 
	C167.524689,17.140724 175.182297,25.063864 175.063278,36.090908 
	C174.833115,57.411438 174.996201,78.736214 174.996292,100.059227 
	C174.996292,101.840202 174.996292,103.621185 174.996292,105.699768 
	C181.174255,105.699768 186.741852,105.699768 193.004379,105.699768 
	C193.004379,103.714561 193.004379,101.944435 193.004379,100.174301 
	C193.004410,79.017876 192.975830,57.861382 193.022690,36.705063 
	C193.036011,30.695608 194.408203,24.914141 199.476547,21.256548 
	C202.380951,19.160580 206.221512,17.220810 209.660797,17.185633 
	C240.142853,16.873857 270.629425,16.991642 301.114685,17.012133 
	C310.246338,17.018270 316.987488,23.895353 316.992096,33.148098 
	C317.003174,55.304039 316.995728,77.459984 316.995758,99.615929 
	C316.995758,101.437782 316.995728,103.259636 316.995728,105.542900 
	C323.301178,105.542900 329.322021,105.542900 336.004272,105.542900 
	C336.004272,103.669075 336.004272,101.893486 336.004272,100.117889 
	C336.004272,79.128052 336.334442,58.131008 335.877136,37.151138 
	C335.614105,25.084944 343.454224,17.146385 355.404755,17.067457 
	C384.056305,16.878225 412.710358,16.918694 441.362579,17.049255 
	C452.635742,17.100626 459.975555,24.757036 459.987915,35.963928 
	C460.012299,58.119846 460.078766,80.276443 459.910065,102.431107 
	C459.882996,105.983681 458.727814,109.527664 457.745117,113.576813 
	C451.823730,120.965858 444.668427,123.082664 435.833557,123.042786 
	C375.200378,122.769112 314.565430,122.922882 253.931030,122.888893 
	C224.280060,122.872269 194.629150,122.689713 164.978210,122.689217 
	C135.827164,122.688721 106.674026,122.648651 77.526268,122.998482 
	C67.939781,123.113541 59.324959,121.793663 52.952251,113.841644 
M209.944168,96.913483 
	C209.930557,98.745934 210.023712,100.586792 209.880005,102.408989 
	C209.622284,105.676613 211.108185,106.827766 214.283691,106.820953 
	C241.773651,106.761948 269.263855,106.771523 296.753876,106.810448 
	C299.617126,106.814507 301.039795,105.837585 301.031525,102.750145 
	C300.972168,80.591614 301.028046,58.432713 300.915283,36.274605 
	C300.909973,35.233326 299.651825,34.198421 298.049957,33.040779 
	C291.775055,33.040779 285.500183,33.040779 278.766296,33.040779 
	C278.766296,36.970932 278.767487,40.269573 278.766052,43.568218 
	C278.762878,50.899433 278.945160,58.236816 278.703461,65.560188 
	C278.446075,73.358971 271.551300,77.985016 266.386414,73.333656 
	C258.674194,66.388260 252.015381,67.186234 244.754364,73.163506 
	C244.375275,73.475571 243.907501,73.698967 243.451767,73.895912 
	C239.604263,75.558563 236.405945,74.423042 234.484177,70.968056 
	C233.422638,69.059601 233.091583,66.546532 233.060349,64.297287 
	C232.917603,54.024311 232.997635,43.748245 232.997635,33.020901 
	C225.938400,33.020901 219.469406,32.831577 213.032547,33.201645 
	C211.920670,33.265568 210.050858,35.695850 210.041183,37.043930 
	C209.900116,56.700478 210.016113,76.358864 209.944168,96.913483 
M441.048126,33.049217 
	C434.469391,33.049217 427.890656,33.049217 421.003357,33.049217 
	C421.003357,35.621395 421.003754,37.434200 421.003296,39.247005 
	C421.001007,48.231022 421.167572,57.219265 420.942902,66.197723 
	C420.761414,73.449860 413.578827,77.900444 408.664032,73.327972 
	C400.989777,66.188240 394.342285,67.261688 387.140717,73.216774 
	C387.013153,73.322281 386.873016,73.416977 386.727325,73.495590 
	C382.265839,75.903000 377.528961,74.175964 375.968384,69.303619 
	C375.326355,67.299088 375.243988,65.056801 375.228027,62.920261 
	C375.155090,53.152664 375.195984,43.384216 375.195984,33.028217 
	C368.178467,33.028217 361.727966,32.832565 355.311157,33.210239 
	C354.168457,33.277489 352.245941,35.717892 352.236755,37.072990 
	C352.103943,56.699028 352.236450,76.326866 352.145447,96.852997 
	C351.920746,106.830612 351.920746,106.830742 362.047760,106.830719 
	C387.209808,106.830666 412.372375,106.746140 437.533356,106.910538 
	C441.900879,106.939064 443.298645,105.559113 443.260132,101.177299 
	C443.074188,80.016167 443.201050,58.852409 443.124969,37.689911 
	C443.119568,36.182240 442.375488,34.677223 441.048126,33.049217 
M67.364082,96.827591 
	C67.335159,98.656525 67.391144,100.491646 67.258652,102.313042 
	C67.023499,105.545517 68.490707,106.758339 71.667923,106.752090 
	C99.281624,106.697769 126.895523,106.699951 154.509232,106.752136 
	C157.463470,106.757721 158.744278,105.604301 158.739090,102.633453 
	C158.700729,80.675560 158.761749,58.717262 158.606186,36.760410 
	C158.597626,35.550388 156.938721,34.352066 155.112503,33.022308 
	C148.868607,33.022308 142.624710,33.022308 136.111008,33.022308 
	C136.111008,44.542732 136.431244,55.353207 135.890579,66.120453 
	C135.751755,68.884865 133.475800,72.482246 131.107040,73.894463 
	C129.239334,75.007950 124.740028,74.353905 123.108566,72.753212 
	C116.485428,66.254967 110.283104,66.835754 103.695068,72.343224 
	C103.568367,72.449142 103.422676,72.534454 103.279106,72.617775 
	C96.232132,76.707115 90.801231,73.626404 90.719009,65.377319 
	C90.627815,56.228317 90.696312,47.077721 90.695343,37.927818 
	C90.695183,36.362026 90.695328,34.796238 90.695328,33.002159 
	C83.537422,33.002159 77.213127,32.808567 70.920013,33.165218 
	C69.658821,33.236698 67.480751,35.397137 67.473686,36.604607 
	C67.358025,56.388683 67.523300,76.174408 67.364082,96.827591 
M391.268860,43.448437 
	C391.268860,46.290371 391.268860,49.132309 391.268860,50.737152 
	C396.756042,50.737152 401.229919,50.737152 405.607117,50.737152 
	C405.607117,45.193714 405.607117,39.294601 405.607117,33.306641 
	C400.767151,33.306641 396.231873,33.306641 391.269043,33.306641 
	C391.269043,36.582375 391.269043,39.535099 391.268860,43.448437 
M117.647362,50.243843 
	C118.641174,50.608833 119.634987,50.973820 120.670761,51.354218 
	C120.670761,45.135773 120.670761,39.257278 120.670761,33.322777 
	C115.956535,33.322777 111.577110,33.322777 107.091736,33.322777 
	C107.091736,39.646458 107.091736,45.641544 107.091736,51.018959 
	C110.557541,50.660469 113.705650,50.334839 117.647362,50.243843 
M258.849792,49.896263 
	C260.186920,50.258461 261.524078,50.620659 262.988556,51.017353 
	C262.988556,44.851944 262.988556,39.126808 262.988556,33.241241 
	C258.265839,33.241241 253.864502,33.241241 249.381790,33.241241 
	C249.381790,39.622589 249.381790,45.756393 249.381790,51.315903 
	C252.468414,50.751286 255.267899,50.239193 258.849792,49.896263 
z"/>
<path fill="#E1E8F5" opacity="1.000000" stroke="none" 
	d="
M52.544888,113.911743 
	C59.324959,121.793663 67.939781,123.113541 77.526268,122.998482 
	C106.674026,122.648651 135.827164,122.688721 164.978210,122.689217 
	C194.629150,122.689713 224.280060,122.872269 253.931030,122.888893 
	C314.565430,122.922882 375.200378,122.769112 435.833557,123.042786 
	C444.668427,123.082664 451.823730,120.965858 457.721375,113.959656 
	C460.400513,113.891029 462.754395,113.940742 465.548645,113.969131 
	C466.151428,124.440956 466.313873,134.934113 465.755554,145.719864 
	C460.704071,146.041229 456.373291,146.069992 451.786163,145.840286 
	C449.699951,139.222702 447.866943,137.891830 440.696320,137.891464 
	C318.429718,137.885193 196.163116,137.884735 73.896515,137.890961 
	C66.388580,137.891342 65.257301,138.769409 62.523277,146.032898 
	C57.387589,146.036438 52.716579,146.063065 48.045570,146.089691 
	C47.915611,135.628204 47.785648,125.166718 47.834076,114.325607 
	C49.387489,113.957939 50.762505,113.969887 52.544888,113.911743 
z"/>
<path fill="#000000" opacity="1.000000" stroke="none" 
	d="
M452.042542,146.098755 
	C456.373291,146.069992 460.704071,146.041229 465.494690,146.050308 
	C465.967407,186.387390 465.980255,226.686630 465.516266,267.486694 
	C460.707214,267.959106 456.375031,267.930634 452.021118,267.532837 
	C451.081848,261.716583 447.605042,259.921051 442.398895,259.960907 
	C427.238007,260.077087 412.075684,260.002045 396.913910,260.001984 
	C394.470245,260.001984 392.026581,260.001984 388.997894,260.001984 
	C388.997894,257.411835 388.997925,255.460205 388.997925,253.508560 
	C388.997894,231.515671 389.021881,209.522751 388.987823,187.529907 
	C388.970367,176.263443 381.575958,167.644012 369.615417,167.843613 
	C340.466309,168.330093 311.303589,167.993530 282.146362,168.007034 
	C271.928314,168.011765 265.014648,174.906158 265.007233,185.101105 
	C264.990509,208.093658 265.001953,231.086227 265.001953,254.078796 
	C265.001953,255.857986 265.001953,257.637177 265.001953,259.550049 
	C258.345734,259.550049 252.324982,259.550049 245.997955,259.550049 
	C245.997955,257.279480 245.997971,255.459961 245.997971,253.640457 
	C245.997971,230.814499 246.007858,207.988556 245.993408,185.162598 
	C245.986908,174.915253 239.092712,168.011703 228.852951,168.006897 
	C199.695709,167.993195 170.538483,168.000595 141.381241,168.002716 
	C129.297318,168.003601 122.011307,175.322800 122.005501,187.496765 
	C121.994926,209.656265 122.002579,231.815781 122.002625,253.975281 
	C122.002632,255.882889 122.002617,257.790497 122.002617,260.001862 
	C104.778999,260.001862 88.463150,259.997040 72.147308,260.004364 
	C66.011116,260.007111 64.131317,261.649170 62.521156,267.966248 
	C57.383762,267.963379 52.710903,267.936646 48.038044,267.909912 
	C48.029011,227.611557 48.019974,187.313202 48.028252,146.552277 
	C52.716579,146.063065 57.387589,146.036438 62.532898,146.406006 
	C64.762794,152.731873 66.496048,153.996094 73.050278,153.996338 
	C195.906067,154.000839 318.761841,154.000504 441.617645,153.997559 
	C448.841675,153.997375 449.822998,153.239273 452.042542,146.098755 
z"/>
<path fill="#000000" opacity="1.000000" stroke="none" 
	d="
M51.952271,427.843262 
	C50.910088,427.892090 49.867905,427.940948 48.435379,427.951172 
	C48.030113,385.603149 48.015194,343.293762 48.469620,300.496948 
	C53.619595,300.010132 58.300232,300.010681 62.997757,300.388000 
	C64.566452,306.203552 67.140839,307.977905 73.708839,307.978302 
	C196.171951,307.985626 318.635071,307.984955 441.098175,307.979645 
	C447.442169,307.979370 449.839569,306.211823 452.478485,300.031982 
	C457.290222,300.023865 461.638733,300.038055 465.987244,300.052277 
	C465.988739,342.364349 465.990204,384.676453 465.973297,427.451324 
	C463.613220,427.938629 461.271576,427.963135 458.642212,427.587341 
	C458.900665,425.127014 459.912659,423.069092 459.921997,421.006622 
	C460.032349,396.677887 460.124390,372.347382 459.925232,348.019745 
	C459.849548,338.778320 452.000336,331.056458 443.110626,331.033691 
	C412.949219,330.956451 382.787292,330.945374 352.626007,331.040558 
	C343.466736,331.069458 336.017365,338.878326 336.009705,348.061035 
	C335.991333,370.057343 336.003784,392.053650 336.003815,414.049957 
	C336.003815,415.832092 336.003815,417.614227 336.003815,419.562805 
	C329.368805,419.562805 323.347412,419.562805 316.996155,419.562805 
	C316.996155,417.306030 316.996155,415.489136 316.996155,413.672272 
	C316.996155,392.342529 316.563385,371.000488 317.167206,349.687866 
	C317.500610,337.920471 308.929138,330.839722 298.347168,330.925995 
	C270.353729,331.154236 242.350830,331.355347 214.364670,330.849396 
	C201.093170,330.609467 192.711639,338.800781 192.919937,352.256226 
	C193.239746,372.914459 193.009872,393.581299 192.993393,414.244507 
	C192.991974,416.014862 192.842194,417.785095 192.756073,419.670563 
	C186.685944,419.670563 181.117203,419.670563 174.996780,419.670563 
	C174.996780,417.554260 174.996780,415.765564 174.996780,413.976837 
	C174.996658,392.480438 174.616211,370.974274 175.167404,349.492035 
	C175.418274,339.715057 166.163177,330.697968 156.749634,330.841339 
	C127.594627,331.285400 98.428551,330.996185 69.266777,331.007202 
	C58.632900,331.011200 51.012978,338.739502 51.006893,349.518738 
	C50.994949,370.681854 50.945015,391.845245 51.046516,413.007874 
	C51.070244,417.954346 51.635933,422.898193 51.952271,427.843262 
z"/>
<path fill="#E1E8F5" opacity="1.000000" stroke="none" 
	d="
M62.980865,300.011230 
	C58.300232,300.010681 53.619595,300.010132 48.474838,300.031738 
	C47.846470,289.560150 47.682220,279.066467 47.778008,268.241333 
	C52.710903,267.936646 57.383762,267.963379 62.682243,268.289825 
	C65.345200,275.063324 66.927498,276.113281 74.788658,276.113464 
	C196.334869,276.116211 317.881073,276.115875 439.427277,276.114319 
	C448.071259,276.114227 448.960785,275.528107 452.042816,267.902161 
	C456.375031,267.930634 460.707214,267.959106 465.499603,267.949554 
	C466.087067,278.371826 466.214386,288.832062 466.164490,299.672302 
	C461.638733,300.038055 457.290222,300.023865 452.301239,299.716644 
	C449.638397,292.685364 447.713074,291.318695 439.995972,291.318298 
	C318.183472,291.312134 196.370987,291.311401 74.558495,291.318604 
	C66.551521,291.319061 65.061081,292.473022 62.980865,300.011230 
z"/>
<path fill="#C9D8EF" opacity="1.000000" stroke="none" 
	d="
M496.995026,326.000000 
	C496.994995,374.140594 496.995758,421.781158 496.991791,469.421753 
	C496.991638,471.086700 497.167786,472.792297 496.874054,474.408478 
	C496.166626,478.300995 493.698242,480.902161 489.760925,480.835175 
	C485.889679,480.769257 483.321533,478.335480 482.825714,474.286896 
	C482.624420,472.643005 482.705292,470.961121 482.705231,469.296509 
	C482.700806,348.029572 482.700439,226.762619 482.707520,105.495667 
	C482.707611,103.665627 482.546692,101.783142 482.907379,100.016266 
	C483.704468,96.111320 486.239746,93.849876 490.279877,93.986488 
	C494.374420,94.124947 496.638855,96.524521 496.951385,100.624779 
	C497.065002,102.115845 496.993835,103.621574 496.993866,105.120613 
	C496.995148,178.580414 496.995026,252.040207 496.995026,326.000000 
z"/>
<path fill="#C9D8EF" opacity="1.000000" stroke="none" 
	d="
M32.116997,336.000000 
	C32.116974,380.829468 32.117371,425.158966 32.114964,469.488434 
	C32.114883,470.988007 32.204777,472.500031 32.048542,473.984741 
	C31.626455,477.995911 28.253586,481.075653 24.266417,480.938232 
	C19.950186,480.789459 17.597500,478.318146 17.061325,474.107605 
	C16.914978,472.958344 17.004208,471.777588 17.004192,470.611298 
	C17.002493,348.455261 17.001369,226.299194 17.005674,104.143150 
	C17.005932,96.828743 20.160898,93.234497 25.995411,94.004311 
	C29.723969,94.496254 32.153572,96.385635 32.105209,100.520683 
	C32.085724,102.186874 32.116253,103.853592 32.116268,105.520073 
	C32.117054,182.180054 32.116959,258.840027 32.116997,336.000000 
z"/>
<path fill="#2C3D66" opacity="1.000000" stroke="none" 
	d="
M52.282749,427.947449 
	C51.635933,422.898193 51.070244,417.954346 51.046516,413.007874 
	C50.945015,391.845245 50.994949,370.681854 51.006893,349.518738 
	C51.012978,338.739502 58.632900,331.011200 69.266777,331.007202 
	C98.428551,330.996185 127.594627,331.285400 156.749634,330.841339 
	C166.163177,330.697968 175.418274,339.715057 175.167404,349.492035 
	C174.616211,370.974274 174.996658,392.480438 174.996780,413.976837 
	C174.996780,415.765564 174.996780,417.554260 174.996780,419.670563 
	C181.117203,419.670563 186.685944,419.670563 192.756073,419.670563 
	C192.842194,417.785095 192.991974,416.014862 192.993393,414.244507 
	C193.009872,393.581299 193.239746,372.914459 192.919937,352.256226 
	C192.711639,338.800781 201.093170,330.609467 214.364670,330.849396 
	C242.350830,331.355347 270.353729,331.154236 298.347168,330.925995 
	C308.929138,330.839722 317.500610,337.920471 317.167206,349.687866 
	C316.563385,371.000488 316.996155,392.342529 316.996155,413.672272 
	C316.996155,415.489136 316.996155,417.306030 316.996155,419.562805 
	C323.347412,419.562805 329.368805,419.562805 336.003815,419.562805 
	C336.003815,417.614227 336.003815,415.832092 336.003815,414.049957 
	C336.003784,392.053650 335.991333,370.057343 336.009705,348.061035 
	C336.017365,338.878326 343.466736,331.069458 352.626007,331.040558 
	C382.787292,330.945374 412.949219,330.956451 443.110626,331.033691 
	C452.000336,331.056458 459.849548,338.778320 459.925232,348.019745 
	C460.124390,372.347382 460.032349,396.677887 459.921997,421.006622 
	C459.912659,423.069092 458.900665,425.127014 458.206177,427.536621 
	C453.017883,435.637726 445.828308,438.128326 436.724365,437.999573 
	C411.397156,437.641327 386.059174,438.088348 360.730164,437.800781 
	C343.630127,437.606659 326.403046,435.074554 309.471680,436.475464 
	C278.001587,439.079407 246.583145,437.239685 215.154236,437.728851 
	C199.071457,437.979156 182.824005,435.085358 166.899384,436.469757 
	C136.430481,439.118591 105.998871,436.707733 75.590538,437.976532 
	C66.057533,438.374329 58.214760,436.134674 52.282749,427.947449 
M209.911865,411.941772 
	C209.899918,413.773315 210.046432,415.622681 209.842422,417.432587 
	C209.440079,421.002014 210.987015,421.959778 214.418900,421.945618 
	C241.727402,421.832764 269.036713,421.843536 296.345428,421.933472 
	C299.724609,421.944611 301.081543,420.937225 301.062256,417.370514 
	C300.943390,395.390747 301.034790,373.409882 300.918579,351.430115 
	C300.911957,350.179565 299.690033,348.935455 298.143219,347.451447 
	C291.852661,347.451447 285.562073,347.451447 278.691772,347.451447 
	C278.691772,349.725494 278.692017,351.519562 278.691772,353.313629 
	C278.690552,362.309418 279.022003,371.324677 278.497070,380.289825 
	C278.326569,383.201721 276.576782,386.766968 274.366302,388.629089 
	C271.452576,391.083710 267.747375,389.609161 264.741394,387.382538 
	C261.947693,385.313080 259.153534,383.244324 256.198914,381.056274 
	C253.349518,383.011780 250.548676,384.796814 247.901077,386.785797 
	C244.589050,389.273926 241.020493,390.353424 237.184464,388.521149 
	C233.302689,386.667023 232.911652,383.048676 232.957901,379.158966 
	C233.082123,368.713531 233.000336,358.265625 233.000336,347.732422 
	C225.086823,347.732422 217.700668,347.732422 210.074814,347.732422 
	C210.074814,369.118317 210.074814,390.080933 209.911865,411.941772 
M155.297348,347.501251 
	C149.367050,347.501251 143.436768,347.501251 137.677338,347.501251 
	C137.378067,348.177307 137.134384,348.472290 137.132690,348.768646 
	C137.074799,358.921478 136.987640,369.074707 137.028458,379.227325 
	C137.043747,383.031586 136.916656,386.857422 133.016708,388.706604 
	C129.132462,390.548309 125.380318,389.746216 121.826012,387.141388 
	C113.737083,381.213196 113.678589,381.293396 105.568840,386.697632 
	C105.291847,386.882202 105.025093,387.165894 104.722702,387.215637 
	C101.581459,387.732086 97.738937,389.522980 95.483650,388.329224 
	C93.230659,387.136688 91.666122,383.030212 91.387589,380.052612 
	C90.785477,373.615692 91.198265,367.083710 91.197891,360.590637 
	C91.197121,347.202057 91.197662,347.204742 77.639137,347.201263 
	C66.085396,347.198303 67.699837,346.578094 67.645020,357.032043 
	C67.639801,358.026672 67.420174,359.020660 67.421478,360.014801 
	C67.443710,376.984131 67.485107,393.953430 67.277771,411.813751 
	C67.239212,413.478577 67.310608,415.154755 67.140198,416.805969 
	C66.731064,420.770416 68.509201,422.007660 72.370667,421.991516 
	C99.531471,421.877930 126.693184,421.879395 153.854004,421.990753 
	C157.622269,422.006195 158.868851,420.465973 158.860641,416.953003 
	C158.809662,395.124115 158.880310,373.294739 158.718384,351.466949 
	C158.709152,350.223694 157.004959,348.993042 155.297348,347.501251 
M441.080994,347.363861 
	C434.814819,347.363861 428.548645,347.363861 421.895203,347.363861 
	C421.895203,358.623871 422.168884,369.272430 421.718109,379.890228 
	C421.592926,382.838715 420.039764,386.561707 417.853302,388.380707 
	C414.981964,390.769531 410.491730,390.649780 407.752136,387.691193 
	C401.296051,380.719208 395.731110,381.762329 388.845398,387.468140 
	C382.972504,392.334595 376.311401,388.554840 376.151367,380.892029 
	C375.967072,372.070557 376.105194,363.242310 376.103546,354.417023 
	C376.103119,352.167786 376.103485,349.918579 376.103485,347.251404 
	C368.673035,347.251404 362.031982,347.066071 355.420502,347.424927 
	C354.251251,347.488403 352.253448,349.815399 352.244781,351.107941 
	C352.110626,371.083801 352.242157,391.061432 352.153961,411.921967 
	C352.134003,412.754456 352.100189,413.586884 352.096344,414.419434 
	C352.061951,421.902466 352.063477,421.905823 359.395172,421.906219 
	C385.548462,421.907562 411.702179,421.830750 437.854584,421.983429 
	C442.030243,422.007812 443.317810,420.623596 443.288208,416.515076 
	C443.133362,395.027161 443.240479,373.537506 443.162842,352.048767 
	C443.157532,350.576263 442.387756,349.106476 441.080994,347.363861 
M391.254150,351.779205 
	C391.254150,356.664978 391.254150,361.550751 391.254150,367.397308 
	C396.261139,363.121307 400.883331,363.080597 405.608612,366.077240 
	C405.608612,359.575592 405.608612,353.677521 405.608612,347.261627 
	C401.538086,347.261627 397.734253,347.007202 394.006256,347.426605 
	C392.973541,347.542755 392.166046,349.660797 391.254150,351.779205 
M121.011383,354.568146 
	C121.011383,352.301514 121.011383,350.034882 121.011383,347.532349 
	C116.036018,347.532349 111.634575,347.532349 107.030792,347.532349 
	C107.030792,354.015686 107.030792,360.263153 107.030792,367.207825 
	C111.656425,362.748383 116.172775,363.470276 121.011383,366.075043 
	C121.011383,362.147614 121.011383,358.837738 121.011383,354.568146 
M261.842010,365.465759 
	C262.350525,365.266632 263.300323,365.073669 263.303223,364.867493 
	C263.383392,359.137115 263.367523,353.405396 263.367523,347.544769 
	C258.314697,347.544769 253.917572,347.544769 249.270050,347.544769 
	C249.270050,354.003479 249.270050,360.160950 249.270050,365.096893 
	C253.441772,365.096893 257.290436,365.096893 261.842010,365.465759 
z"/>
<path fill="#FDD680" opacity="1.000000" stroke="none" 
	d="
M67.625366,95.959755 
	C67.523300,76.174408 67.358025,56.388683 67.473686,36.604607 
	C67.480751,35.397137 69.658821,33.236698 70.920013,33.165218 
	C77.213127,32.808567 83.537422,33.002159 90.695328,33.002159 
	C90.695328,34.796238 90.695183,36.362026 90.695343,37.927818 
	C90.696312,47.077721 90.627815,56.228317 90.719009,65.377319 
	C90.801231,73.626404 96.232132,76.707115 103.279106,72.617775 
	C103.422676,72.534454 103.568367,72.449142 103.695068,72.343224 
	C110.283104,66.835754 116.485428,66.254967 123.108566,72.753212 
	C124.740028,74.353905 129.239334,75.007950 131.107040,73.894463 
	C133.475800,72.482246 135.751755,68.884865 135.890579,66.120453 
	C136.431244,55.353207 136.111008,44.542732 136.111008,33.022308 
	C142.624710,33.022308 148.868607,33.022308 155.575821,33.515556 
	C155.700241,56.835804 135.654343,82.739822 112.878746,91.341591 
	C98.023804,96.951942 82.851639,95.892303 67.625366,95.959755 
z"/>
<path fill="#62C3A6" opacity="1.000000" stroke="none" 
	d="
M352.305420,95.954269 
	C352.236450,76.326866 352.103943,56.699028 352.236755,37.072990 
	C352.245941,35.717892 354.168457,33.277489 355.311157,33.210239 
	C361.727966,32.832565 368.178467,33.028217 375.195984,33.028217 
	C375.195984,43.384216 375.155090,53.152664 375.228027,62.920261 
	C375.243988,65.056801 375.326355,67.299088 375.968384,69.303619 
	C377.528961,74.175964 382.265839,75.903000 386.727325,73.495590 
	C386.873016,73.416977 387.013153,73.322281 387.140717,73.216774 
	C394.342285,67.261688 400.989777,66.188240 408.664032,73.327972 
	C413.578827,77.900444 420.761414,73.449860 420.942902,66.197723 
	C421.167572,57.219265 421.001007,48.231022 421.003296,39.247005 
	C421.003754,37.434200 421.003357,35.621395 421.003357,33.049217 
	C427.890656,33.049217 434.469391,33.049217 441.519409,33.526104 
	C441.978394,35.000477 442.073456,36.012783 441.938080,36.993282 
	C438.281616,63.477612 416.428497,88.296272 389.909607,93.696907 
	C377.726898,96.177940 364.861328,95.305832 352.305420,95.954269 
z"/>
<path fill="#42BAEB" opacity="1.000000" stroke="none" 
	d="
M210.070801,96.016815 
	C210.016113,76.358864 209.900116,56.700478 210.041183,37.043930 
	C210.050858,35.695850 211.920670,33.265568 213.032547,33.201645 
	C219.469406,32.831577 225.938400,33.020901 232.997635,33.020901 
	C232.997635,43.748245 232.917603,54.024311 233.060349,64.297287 
	C233.091583,66.546532 233.422638,69.059601 234.484177,70.968056 
	C236.405945,74.423042 239.604263,75.558563 243.451767,73.895912 
	C243.907501,73.698967 244.375275,73.475571 244.754364,73.163506 
	C252.015381,67.186234 258.674194,66.388260 266.386414,73.333656 
	C271.551300,77.985016 278.446075,73.358971 278.703461,65.560188 
	C278.945160,58.236816 278.762878,50.899433 278.766052,43.568218 
	C278.767487,40.269573 278.766296,36.970932 278.766296,33.040779 
	C285.500183,33.040779 291.775055,33.040779 298.514801,33.503300 
	C297.767456,43.990280 294.652466,53.415043 289.440216,62.032452 
	C278.425995,80.242317 262.420319,91.711617 241.354813,94.823555 
	C231.092010,96.339653 220.508896,95.687485 210.070801,96.016815 
z"/>
<path fill="#F5C54F" opacity="1.000000" stroke="none" 
	d="
M67.494720,96.393677 
	C82.851639,95.892303 98.023804,96.951942 112.878746,91.341591 
	C135.654343,82.739822 155.700241,56.835804 156.043579,33.578552 
	C156.938721,34.352066 158.597626,35.550388 158.606186,36.760410 
	C158.761749,58.717262 158.700729,80.675560 158.739090,102.633453 
	C158.744278,105.604301 157.463470,106.757721 154.509232,106.752136 
	C126.895523,106.699951 99.281624,106.697769 71.667923,106.752090 
	C68.490707,106.758339 67.023499,105.545517 67.258652,102.313042 
	C67.391144,100.491646 67.335159,98.656525 67.494720,96.393677 
z"/>
<path fill="#04ABD9" opacity="1.000000" stroke="none" 
	d="
M210.007477,96.465149 
	C220.508896,95.687485 231.092010,96.339653 241.354813,94.823555 
	C262.420319,91.711617 278.425995,80.242317 289.440216,62.032452 
	C294.652466,53.415043 297.767456,43.990280 298.978394,33.563183 
	C299.651825,34.198421 300.909973,35.233326 300.915283,36.274605 
	C301.028046,58.432713 300.972168,80.591614 301.031525,102.750145 
	C301.039795,105.837585 299.617126,106.814507 296.753876,106.810448 
	C269.263855,106.771523 241.773651,106.761948 214.283691,106.820953 
	C211.108185,106.827766 209.622284,105.676613 209.880005,102.408989 
	C210.023712,100.586792 209.930557,98.745934 210.007477,96.465149 
z"/>
<path fill="#4FBA95" opacity="1.000000" stroke="none" 
	d="
M352.225433,96.403625 
	C364.861328,95.305832 377.726898,96.177940 389.909607,93.696907 
	C416.428497,88.296272 438.281616,63.477612 441.938080,36.993282 
	C442.073456,36.012783 441.978394,35.000477 441.982819,33.586983 
	C442.375488,34.677223 443.119568,36.182240 443.124969,37.689911 
	C443.201050,58.852409 443.074188,80.016167 443.260132,101.177299 
	C443.298645,105.559113 441.900879,106.939064 437.533356,106.910538 
	C412.372375,106.746140 387.209808,106.830666 362.047760,106.830719 
	C351.920746,106.830742 351.920746,106.830612 352.225433,96.403625 
z"/>
<path fill="#C1D0E8" opacity="1.000000" stroke="none" 
	d="
M391.268951,42.968132 
	C391.269043,39.535099 391.269043,36.582375 391.269043,33.306641 
	C396.231873,33.306641 400.767151,33.306641 405.607117,33.306641 
	C405.607117,39.294601 405.607117,45.193714 405.607117,50.737152 
	C401.229919,50.737152 396.756042,50.737152 391.268860,50.737152 
	C391.268860,49.132309 391.268860,46.290371 391.268951,42.968132 
z"/>
<path fill="#EE5991" opacity="1.000000" stroke="none" 
	d="
M117.250557,50.126526 
	C113.705650,50.334839 110.557541,50.660469 107.091736,51.018959 
	C107.091736,45.641544 107.091736,39.646458 107.091736,33.322777 
	C111.577110,33.322777 115.956535,33.322777 120.670761,33.322777 
	C120.670761,39.257278 120.670761,45.135773 120.670761,51.354218 
	C119.634987,50.973820 118.641174,50.608833 117.250557,50.126526 
z"/>
<path fill="#C7D6EE" opacity="1.000000" stroke="none" 
	d="
M258.458588,49.811684 
	C255.267899,50.239193 252.468414,50.751286 249.381790,51.315903 
	C249.381790,45.756393 249.381790,39.622589 249.381790,33.241241 
	C253.864502,33.241241 258.265839,33.241241 262.988556,33.241241 
	C262.988556,39.126808 262.988556,44.851944 262.988556,51.017353 
	C261.524078,50.620659 260.186920,50.258461 258.458588,49.811684 
z"/>
<path fill="#2B3C65" opacity="1.000000" stroke="none" 
	d="
M451.786163,145.840302 
	C449.822998,153.239273 448.841675,153.997375 441.617645,153.997559 
	C318.761841,154.000504 195.906067,154.000839 73.050278,153.996338 
	C66.496048,153.996094 64.762794,152.731873 62.997574,146.429092 
	C65.257301,138.769409 66.388580,137.891342 73.896515,137.890961 
	C196.163116,137.884735 318.429718,137.885193 440.696320,137.891464 
	C447.866943,137.891830 449.699951,139.222702 451.786163,145.840302 
z"/>
<path fill="#2C3D65" opacity="1.000000" stroke="none" 
	d="
M452.021118,267.532837 
	C448.960785,275.528107 448.071259,276.114227 439.427277,276.114319 
	C317.881073,276.115875 196.334869,276.116211 74.788658,276.113464 
	C66.927498,276.113281 65.345200,275.063324 63.146778,268.265991 
	C64.131317,261.649170 66.011116,260.007111 72.147308,260.004364 
	C88.463150,259.997040 104.778999,260.001862 122.002617,260.001862 
	C122.002617,257.790497 122.002632,255.882889 122.002625,253.975281 
	C122.002579,231.815781 121.994926,209.656265 122.005501,187.496765 
	C122.011307,175.322800 129.297318,168.003601 141.381241,168.002716 
	C170.538483,168.000595 199.695709,167.993195 228.852951,168.006897 
	C239.092712,168.011703 245.986908,174.915253 245.993408,185.162598 
	C246.007858,207.988556 245.997971,230.814499 245.997971,253.640457 
	C245.997971,255.459961 245.997955,257.279480 245.997955,259.550049 
	C252.324982,259.550049 258.345734,259.550049 265.001953,259.550049 
	C265.001953,257.637177 265.001953,255.857986 265.001953,254.078796 
	C265.001953,231.086227 264.990509,208.093658 265.007233,185.101105 
	C265.014648,174.906158 271.928314,168.011765 282.146362,168.007034 
	C311.303589,167.993530 340.466309,168.330093 369.615417,167.843613 
	C381.575958,167.644012 388.970367,176.263443 388.987823,187.529907 
	C389.021881,209.522751 388.997894,231.515671 388.997925,253.508560 
	C388.997925,255.460205 388.997894,257.411835 388.997894,260.001984 
	C392.026581,260.001984 394.470245,260.001984 396.913910,260.001984 
	C412.075684,260.002045 427.238007,260.077087 442.398895,259.960907 
	C447.605042,259.921051 451.081848,261.716583 452.021118,267.532837 
M281.021545,248.908554 
	C281.012360,250.740906 281.136108,252.585770 280.965240,254.402924 
	C280.649078,257.765594 282.272766,258.743469 285.384369,258.737000 
	C312.871216,258.679810 340.358307,258.670624 367.845062,258.746307 
	C371.101410,258.755280 372.190704,257.543915 372.176971,254.323975 
	C372.082611,232.168213 372.159729,210.011688 372.037292,187.856216 
	C372.030792,186.674637 370.718750,185.500259 369.089386,184.157394 
	C362.814117,184.157394 356.538849,184.157394 349.878540,184.157394 
	C349.878540,194.882523 349.798065,205.019226 349.915009,215.153625 
	C349.967651,219.716034 349.474609,223.855225 344.877380,226.206604 
	C340.605225,228.391724 337.605621,225.652618 334.469360,223.480118 
	C327.427002,218.601868 327.362823,218.500870 320.510284,223.069489 
	C316.659088,225.637070 312.650299,226.980804 308.382111,224.868240 
	C303.901276,222.650421 304.061035,218.248474 304.096008,213.979675 
	C304.176117,204.196976 304.121368,194.413177 304.121368,184.130936 
	C297.141083,184.130936 290.677643,183.941162 284.245789,184.307037 
	C283.097107,184.372391 281.150055,186.732132 281.140381,188.044022 
	C280.992950,208.033844 281.106720,228.025558 281.021545,248.908554 
M227.035553,184.161285 
	C220.604752,184.161285 214.173950,184.161285 207.230255,184.161285 
	C207.230255,195.236008 207.161087,205.690063 207.263947,216.142410 
	C207.305695,220.382690 206.727463,224.130356 202.439468,226.234421 
	C198.351212,228.240509 195.462677,225.849213 192.513443,223.611084 
	C184.976257,217.891251 184.969772,217.883957 177.154480,222.873795 
	C173.712418,225.071426 170.200470,227.124207 166.021973,224.951309 
	C161.710892,222.709473 161.849792,218.613617 161.879715,214.522842 
	C161.952484,204.579437 161.903397,194.635147 161.903397,184.157166 
	C154.720169,184.157166 148.101669,183.996384 141.508514,184.332565 
	C140.532715,184.382324 138.890564,186.775787 138.882996,188.092529 
	C138.768250,208.072281 138.874924,228.053268 138.812592,248.931641 
	C138.800873,250.597641 138.918869,252.276825 138.751160,253.926971 
	C138.370529,257.672272 140.052048,258.859650 143.681229,258.847046 
	C170.839371,258.752686 197.998077,258.762878 225.156342,258.838745 
	C228.507233,258.848114 229.974701,257.773071 229.959854,254.236267 
	C229.867462,232.243301 229.946869,210.249557 229.829391,188.256821 
	C229.822357,186.941483 228.606659,185.632584 227.035553,184.161285 
M320.074371,200.741013 
	C320.197296,201.595459 320.320190,202.449905 320.261627,202.042801 
	C325.354004,201.800247 329.842957,201.586426 334.323608,201.373001 
	C334.323608,196.329071 334.323608,190.341263 334.323608,184.369949 
	C329.458252,184.369949 325.056610,184.369949 320.073944,184.369949 
	C320.073944,189.730759 320.073944,194.810287 320.074371,200.741013 
M188.711319,201.375320 
	C189.722580,201.758728 190.733856,202.142151 191.804596,202.548111 
	C191.804596,196.338898 191.804596,190.434875 191.804596,184.416901 
	C187.082428,184.416901 182.691071,184.416901 178.232605,184.416901 
	C178.232605,190.874557 178.232605,197.019028 178.232605,202.383057 
	C181.662994,201.930664 184.796906,201.517365 188.711319,201.375320 
z"/>
<path fill="#2F4068" opacity="1.000000" stroke="none" 
	d="
M62.997757,300.388000 
	C65.061081,292.473022 66.551521,291.319061 74.558495,291.318604 
	C196.370987,291.311401 318.183472,291.312134 439.995972,291.318298 
	C447.713074,291.318695 449.638397,292.685364 451.838013,299.738953 
	C449.839569,306.211823 447.442169,307.979370 441.098175,307.979645 
	C318.635071,307.984955 196.171951,307.985626 73.708839,307.978302 
	C67.140839,307.977905 64.566452,306.203552 62.997757,300.388000 
z"/>
<path fill="#42B8E9" opacity="1.000000" stroke="none" 
	d="
M352.312073,411.038666 
	C352.242157,391.061432 352.110626,371.083801 352.244781,351.107941 
	C352.253448,349.815399 354.251251,347.488403 355.420502,347.424927 
	C362.031982,347.066071 368.673035,347.251404 376.103485,347.251404 
	C376.103485,349.918579 376.103119,352.167786 376.103546,354.417023 
	C376.105194,363.242310 375.967072,372.070557 376.151367,380.892029 
	C376.311401,388.554840 382.972504,392.334595 388.845398,387.468140 
	C395.731110,381.762329 401.296051,380.719208 407.752136,387.691193 
	C410.491730,390.649780 414.981964,390.769531 417.853302,388.380707 
	C420.039764,386.561707 421.592926,382.838715 421.718109,379.890228 
	C422.168884,369.272430 421.895203,358.623871 421.895203,347.363861 
	C428.548645,347.363861 434.814819,347.363861 441.537842,347.877441 
	C440.946350,376.512848 415.634766,405.223633 386.629974,409.754791 
	C375.397949,411.509430 363.763306,410.687042 352.312073,411.038666 
z"/>
<path fill="#62C2A6" opacity="1.000000" stroke="none" 
	d="
M67.522293,410.922760 
	C67.485107,393.953430 67.443710,376.984131 67.421478,360.014801 
	C67.420174,359.020660 67.639801,358.026672 67.645020,357.032043 
	C67.699837,346.578094 66.085396,347.198303 77.639137,347.201263 
	C91.197662,347.204742 91.197121,347.202057 91.197891,360.590637 
	C91.198265,367.083710 90.785477,373.615692 91.387589,380.052612 
	C91.666122,383.030212 93.230659,387.136688 95.483650,388.329224 
	C97.738937,389.522980 101.581459,387.732086 104.722702,387.215637 
	C105.025093,387.165894 105.291847,386.882202 105.568840,386.697632 
	C113.678589,381.293396 113.737083,381.213196 121.826012,387.141388 
	C125.380318,389.746216 129.132462,390.548309 133.016708,388.706604 
	C136.916656,386.857422 137.043747,383.031586 137.028458,379.227325 
	C136.987640,369.074707 137.074799,358.921478 137.132690,348.768646 
	C137.134384,348.472290 137.378067,348.177307 137.677338,347.501251 
	C143.436768,347.501251 149.367050,347.501251 155.667786,348.097656 
	C155.982452,350.689270 156.262360,352.762451 155.820099,354.667999 
	C149.957611,379.928345 135.357834,397.710388 110.930122,407.196930 
	C96.777428,412.693115 82.072113,410.649261 67.522293,410.922760 
z"/>
<path fill="#FED780" opacity="1.000000" stroke="none" 
	d="
M210.074814,411.043549 
	C210.074814,390.080933 210.074814,369.118317 210.074814,347.732422 
	C217.700668,347.732422 225.086823,347.732422 233.000336,347.732422 
	C233.000336,358.265625 233.082123,368.713531 232.957901,379.158966 
	C232.911652,383.048676 233.302689,386.667023 237.184464,388.521149 
	C241.020493,390.353424 244.589050,389.273926 247.901077,386.785797 
	C250.548676,384.796814 253.349518,383.011780 256.198914,381.056274 
	C259.153534,383.244324 261.947693,385.313080 264.741394,387.382538 
	C267.747375,389.609161 271.452576,391.083710 274.366302,388.629089 
	C276.576782,386.766968 278.326569,383.201721 278.497070,380.289825 
	C279.022003,371.324677 278.690552,362.309418 278.691772,353.313629 
	C278.692017,351.519562 278.691772,349.725494 278.691772,347.451447 
	C285.562073,347.451447 291.852661,347.451447 298.576050,348.010529 
	C298.676025,350.525513 298.422180,352.498718 297.998383,354.434723 
	C291.830963,382.608978 275.075256,401.562866 247.155716,408.595886 
	C235.339661,411.572327 222.467148,410.354828 210.074814,411.043549 
z"/>
<path fill="#4EB895" opacity="1.000000" stroke="none" 
	d="
M67.400032,411.368256 
	C82.072113,410.649261 96.777428,412.693115 110.930122,407.196930 
	C135.357834,397.710388 149.957611,379.928345 155.820099,354.667999 
	C156.262360,352.762451 155.982452,350.689270 156.063919,348.225281 
	C157.004959,348.993042 158.709152,350.223694 158.718384,351.466949 
	C158.880310,373.294739 158.809662,395.124115 158.860641,416.953003 
	C158.868851,420.465973 157.622269,422.006195 153.854004,421.990753 
	C126.693184,421.879395 99.531471,421.877930 72.370667,421.991516 
	C68.509201,422.007660 66.731064,420.770416 67.140198,416.805969 
	C67.310608,415.154755 67.239212,413.478577 67.400032,411.368256 
z"/>
<path fill="#FBC94E" opacity="1.000000" stroke="none" 
	d="
M209.993347,411.492676 
	C222.467148,410.354828 235.339661,411.572327 247.155716,408.595886 
	C275.075256,401.562866 291.830963,382.608978 297.998383,354.434723 
	C298.422180,352.498718 298.676025,350.525513 299.021301,348.128967 
	C299.690033,348.935455 300.911957,350.179565 300.918579,351.430115 
	C301.034790,373.409882 300.943390,395.390747 301.062256,417.370514 
	C301.081543,420.937225 299.724609,421.944611 296.345428,421.933472 
	C269.036713,421.843536 241.727402,421.832764 214.418900,421.945618 
	C210.987015,421.959778 209.440079,421.002014 209.842422,417.432587 
	C210.046432,415.622681 209.899918,413.773315 209.993347,411.492676 
z"/>
<path fill="#04ACDA" opacity="1.000000" stroke="none" 
	d="
M352.233032,411.480316 
	C363.763306,410.687042 375.397949,411.509430 386.629974,409.754791 
	C415.634766,405.223633 440.946350,376.512848 441.984070,348.013245 
	C442.387756,349.106476 443.157532,350.576263 443.162842,352.048767 
	C443.240479,373.537506 443.133362,395.027161 443.288208,416.515076 
	C443.317810,420.623596 442.030243,422.007812 437.854584,421.983429 
	C411.702179,421.830750 385.548462,421.907562 359.395172,421.906219 
	C352.063477,421.905823 352.061951,421.902466 352.096344,414.419434 
	C352.100189,413.586884 352.134003,412.754456 352.233032,411.480316 
z"/>
<path fill="#BECDE5" opacity="1.000000" stroke="none" 
	d="
M391.254700,351.319794 
	C392.166046,349.660797 392.973541,347.542755 394.006256,347.426605 
	C397.734253,347.007202 401.538086,347.261627 405.608612,347.261627 
	C405.608612,353.677521 405.608612,359.575592 405.608612,366.077240 
	C400.883331,363.080597 396.261139,363.121307 391.254150,367.397308 
	C391.254150,361.550751 391.254150,356.664978 391.254700,351.319794 
z"/>
<path fill="#C4D3EB" opacity="1.000000" stroke="none" 
	d="
M121.011383,355.048035 
	C121.011383,358.837738 121.011383,362.147614 121.011383,366.075043 
	C116.172775,363.470276 111.656425,362.748383 107.030792,367.207825 
	C107.030792,360.263153 107.030792,354.015686 107.030792,347.532349 
	C111.634575,347.532349 116.036018,347.532349 121.011383,347.532349 
	C121.011383,350.034882 121.011383,352.301514 121.011383,355.048035 
z"/>
<path fill="#EA5890" opacity="1.000000" stroke="none" 
	d="
M261.490540,365.281311 
	C257.290436,365.096893 253.441772,365.096893 249.270050,365.096893 
	C249.270050,360.160950 249.270050,354.003479 249.270050,347.544769 
	C253.917572,347.544769 258.314697,347.544769 263.367523,347.544769 
	C263.367523,353.405396 263.383392,359.137115 263.303223,364.867493 
	C263.300323,365.073669 262.350525,365.266632 261.490540,365.281311 
z"/>
<path fill="#41B8E9" opacity="1.000000" stroke="none" 
	d="
M138.929810,248.033981 
	C138.874924,228.053268 138.768250,208.072281 138.882996,188.092529 
	C138.890564,186.775787 140.532715,184.382324 141.508514,184.332565 
	C148.101669,183.996384 154.720169,184.157166 161.903397,184.157166 
	C161.903397,194.635147 161.952484,204.579437 161.879715,214.522842 
	C161.849792,218.613617 161.710892,222.709473 166.021973,224.951309 
	C170.200470,227.124207 173.712418,225.071426 177.154480,222.873795 
	C184.969772,217.883957 184.976257,217.891251 192.513443,223.611084 
	C195.462677,225.849213 198.351212,228.240509 202.439468,226.234421 
	C206.727463,224.130356 207.305695,220.382690 207.263947,216.142410 
	C207.161087,205.690063 207.230255,195.236008 207.230255,184.161285 
	C214.173950,184.161285 220.604752,184.161285 227.495071,184.630341 
	C227.626953,187.053055 227.382568,189.024963 226.959183,190.957642 
	C220.715149,219.460922 203.824158,238.594528 175.461548,245.569153 
	C163.788162,248.439743 151.136505,247.332123 138.929810,248.033981 
z"/>
<path fill="#FED780" opacity="1.000000" stroke="none" 
	d="
M281.159515,248.016846 
	C281.106720,228.025558 280.992950,208.033844 281.140381,188.044022 
	C281.150055,186.732132 283.097107,184.372391 284.245789,184.307037 
	C290.677643,183.941162 297.141083,184.130936 304.121368,184.130936 
	C304.121368,194.413177 304.176117,204.196976 304.096008,213.979675 
	C304.061035,218.248474 303.901276,222.650421 308.382111,224.868240 
	C312.650299,226.980804 316.659088,225.637070 320.510284,223.069489 
	C327.362823,218.500870 327.427002,218.601868 334.469360,223.480118 
	C337.605621,225.652618 340.605225,228.391724 344.877380,226.206604 
	C349.474609,223.855225 349.967651,219.716034 349.915009,215.153625 
	C349.798065,205.019226 349.878540,194.882523 349.878540,184.157394 
	C356.538849,184.157394 362.814117,184.157394 369.544830,184.651031 
	C369.210114,211.792175 346.171112,239.731049 318.251343,245.648560 
	C306.258820,248.190353 293.545410,247.330963 281.159515,248.016846 
z"/>
<path fill="#04AAD8" opacity="1.000000" stroke="none" 
	d="
M138.871201,248.482819 
	C151.136505,247.332123 163.788162,248.439743 175.461548,245.569153 
	C203.824158,238.594528 220.715149,219.460922 226.959183,190.957642 
	C227.382568,189.024963 227.626953,187.053055 227.953979,184.710052 
	C228.606659,185.632584 229.822357,186.941483 229.829391,188.256821 
	C229.946869,210.249557 229.867462,232.243301 229.959854,254.236267 
	C229.974701,257.773071 228.507233,258.848114 225.156342,258.838745 
	C197.998077,258.762878 170.839371,258.752686 143.681229,258.847046 
	C140.052048,258.859650 138.370529,257.672272 138.751160,253.926971 
	C138.918869,252.276825 138.800873,250.597641 138.871201,248.482819 
z"/>
<path fill="#FAC94E" opacity="1.000000" stroke="none" 
	d="
M281.090515,248.462692 
	C293.545410,247.330963 306.258820,248.190353 318.251343,245.648560 
	C346.171112,239.731049 369.210114,211.792175 370.007385,184.733582 
	C370.718750,185.500259 372.030792,186.674637 372.037292,187.856216 
	C372.159729,210.011688 372.082611,232.168213 372.176971,254.323975 
	C372.190704,257.543915 371.101410,258.755280 367.845062,258.746307 
	C340.358307,258.670624 312.871216,258.679810 285.384369,258.737000 
	C282.272766,258.743469 280.649078,257.765594 280.965240,254.402924 
	C281.136108,252.585770 281.012360,250.740906 281.090515,248.462692 
z"/>
<path fill="#E4578E" opacity="1.000000" stroke="none" 
	d="
M320.074158,200.315414 
	C320.073944,194.810287 320.073944,189.730759 320.073944,184.369949 
	C325.056610,184.369949 329.458252,184.369949 334.323608,184.369949 
	C334.323608,190.341263 334.323608,196.329071 334.323608,201.373001 
	C329.842957,201.586426 325.354004,201.800247 320.261627,202.042801 
	C320.320190,202.449905 320.197296,201.595459 320.074158,200.315414 
z"/>
<path fill="#C6D5EC" opacity="1.000000" stroke="none" 
	d="
M188.321075,201.239700 
	C184.796906,201.517365 181.662994,201.930664 178.232605,202.383057 
	C178.232605,197.019028 178.232605,190.874557 178.232605,184.416901 
	C182.691071,184.416901 187.082428,184.416901 191.804596,184.416901 
	C191.804596,190.434875 191.804596,196.338898 191.804596,202.548111 
	C190.733856,202.142151 189.722580,201.758728 188.321075,201.239700 
z"/>
</svg>